<svg xmlns="http://www.w3.org/2000/svg" viewBox="0 0 546.06 132.83"><defs><style>.cls-1{fill:#db545a;}.cls-2{fill:#fff;}.cls-3{fill:#da8624;}.cls-4{fill:#a8dada;}.cls-5{fill:#c2c2c2;}.cls-6{fill:#464746;}.cls-7{fill:#1ca679;}.cls-8{fill:#a9dada;}.cls-9{fill:#1da579;}.cls-10{fill:#6b6a6a;}.cls-11{fill:#e05352;}</style></defs><g id="Layer_2" data-name="Layer 2"><g id="Layer_1-2" data-name="Layer 1"><g id="Layer_2-2" data-name="Layer 2"><g id="Layer_1-2-2" data-name="Layer 1-2"><path class="cls-1" d="M526.36,76.19c0-1.61.06-3.11,0-4.59-.15-3-.37-5.91-.75-8.84a116.7,116.7,0,0,0-2.5-13.86A18.73,18.73,0,0,0,513.92,37c-2.6-1.53-4.84-1.18-7,1.3a12.09,12.09,0,0,0-2.59,6,29.76,29.76,0,0,0-.3,8.32c.19,2.08.42,4.16.64,6.24a7.94,7.94,0,0,1-.2,2.38,1.92,1.92,0,0,1-2.2,1.18c-3-.61-6-.93-8.94-1.65-.57-.14-1.12-.37-1.69-.53a2.57,2.57,0,0,1-1.94-2.33c-.31-2.06-.63-4.12-.92-6.19a19.41,19.41,0,0,1,1-9.25,28.83,28.83,0,0,1,4.85-8.61,14.66,14.66,0,0,1,9.4-5.55,12.63,12.63,0,0,1,4.16.12c1.13.2,2.26.43,3.37.7A20.75,20.75,0,0,1,519,32.91c7.7,5.59,12.83,13.09,16.25,21.83a178.78,178.78,0,0,1,9.19,30.44A83.34,83.34,0,0,1,546,98.44c.1,2.79.11,5.57-.06,8.35a34.56,34.56,0,0,1-2.85,11.92,21.63,21.63,0,0,1-3.23,5.11,33.6,33.6,0,0,1-4.37,4.63,11.79,11.79,0,0,1-6.82,2.84c-4.87.43-9.73.69-14.61.77a77.29,77.29,0,0,1-10.86-.41,40.28,40.28,0,0,1-9.26-2,11.87,11.87,0,0,1-6.24-5.14,30.67,30.67,0,0,1-3.62-9.63A51.46,51.46,0,0,1,483,102.94a31.11,31.11,0,0,1,2-10.31,22.61,22.61,0,0,1,10.29-11.54,44.78,44.78,0,0,1,15-5.48,38.61,38.61,0,0,1,9.9-.22A41.77,41.77,0,0,1,526.36,76.19Z"/><path class="cls-1" d="M401.27,105.42c.13-7.45.21-14.91,0-22.36-.09-3.69-.35-7.38-.48-11.07-.15-4.49-.07-9,0-13.48,0-2.33-.08-4.66-.17-7-.11-2.79-.11-5.57,0-8.36s.34-5.42.51-8.13c.08-1.15.07-1.16,1.18-1.17,2.23,0,4.46-.06,6.69.08a.86.86,0,0,1,1,.71.45.45,0,0,1,0,.11,18.39,18.39,0,0,1,.31,3.22c.08,5.37-.1,10.73-.29,16.09-.11,3.17.13,6.33.23,9.5.06,1.88.19,3.76.28,5.64.17,3.54.33,7.09.5,10.64,0,.94.14,1.87.17,2.81,0,.47.14.68.67.67,1.38,0,1.37,0,1.42-1.36.14-4.42.21-8.84.45-13.26a89.91,89.91,0,0,1,3.76-22.38,34.24,34.24,0,0,1,7.11-12.89,18.78,18.78,0,0,1,6.56-4.74,9.46,9.46,0,0,1,9.35.89,24.49,24.49,0,0,1,6.26,6.09,39.89,39.89,0,0,1,5,9.63,132.16,132.16,0,0,1,6.51,23.51c1.35,7.25,2.39,14.56,3.41,21.86.7,5,1.49,10,2.18,15.09.54,4,1,7.94,1.36,11.93.32,3.29.57,6.59.62,9.9a4.58,4.58,0,0,0,.08.83c.52,1.83-1.11,2.8-2.51,3a13.35,13.35,0,0,1-2,0c-1.74-.06-3.48,0-5.22,0s-3.55-.19-5.33-.11c-.53,0-.7-.25-.84-.7a17.68,17.68,0,0,1-.47-3c-.34-2.66-.51-5.34-.62-8-.14-3.51-.19-7-.29-10.55-.15-5.36-.27-10.72-.66-16.07q-.71-9.8-2.2-19.5c-1.12-7.26-2.34-14.5-3.61-21.73a41.22,41.22,0,0,0-2.07-8.18,11.87,11.87,0,0,0-1.6-2.92,4.37,4.37,0,0,0-6.06-1.24l-.46.34A10.48,10.48,0,0,0,429.22,43a42.8,42.8,0,0,0-3.12,7.62,115.56,115.56,0,0,0-3.57,15c-1.08,5.89-1.78,11.84-2.46,17.78-.61,5.33-1.13,10.67-1.36,16-.18,4.17-.37,8.35-.62,12.52q-.45,7.77-1.64,15.46A4.89,4.89,0,0,1,416,129a1.44,1.44,0,0,1-1.49.92c-4-.22-8-.37-12-.2H402c-1.09,0-1.18-.08-1.19-1.2-.05-4.91.1-9.82.33-14.72C401.19,111,401.19,108.21,401.27,105.42Z"/><path class="cls-1" d="M323.62,47.42v.73c.07,6.52.38,13,.69,19.53q.33,7,.68,14c.07,1.38.09,1.37,1.45,1.29.43,0,.63-.13.64-.6,0-.76.12-1.52.14-2.29.09-3,.13-6,.24-9a96.27,96.27,0,0,1,3.81-24.71,36.06,36.06,0,0,1,6.29-12.18,20,20,0,0,1,6.86-5.53,9.59,9.59,0,0,1,10.19.76,26.34,26.34,0,0,1,8.44,9.8,70.36,70.36,0,0,1,4.58,11.42,143.59,143.59,0,0,1,4.53,17.91q1.23,6.78,2.2,13.6c.67,4.65,1.36,9.3,2,14,.86,6.1,1.77,12.19,2.42,18.32.49,4.68.77,9.37,1,14.06a7.77,7.77,0,0,1-.09,1.67c-.1.66-.38.89-1.06.88-2.62-.05-5.23.2-7.84.16-2,0-4-.16-6.06-.21-.6,0-.84-.25-.93-.85-.3-2.1-.59-4.2-.74-6.32-.26-4-.41-7.93-.49-11.9-.09-4.57-.21-9.13-.41-13.69-.22-4.87-.62-9.72-1.15-14.57-.91-8.45-2.37-16.82-3.77-25.19-.65-3.88-1.24-7.77-2.16-11.59A18.84,18.84,0,0,0,353,41.27a8.13,8.13,0,0,0-1-1.35,4.24,4.24,0,0,0-5.58-.83A9.72,9.72,0,0,0,343,42.76a40,40,0,0,0-2.72,6.56,110.06,110.06,0,0,0-3.76,15.29c-1,5.51-1.71,11.07-2.35,16.64q-.81,6.94-1.38,13.92c-.18,2.57-.33,5.15-.42,7.72-.15,4.28-.35,8.56-.7,12.83-.32,3.89-.75,7.76-1.41,11.61a5.33,5.33,0,0,1-.2.81c-.45,1.43-.76,1.63-2.22,1.56-3.9-.19-7.8-.17-11.71-.17-1.32,0-1.44-.1-1.43-1.39,0-3.21,0-6.42.09-9.62.23-5.78.35-11.56.48-17.34.1-4.88.15-9.75,0-14.63-.11-5.68-.33-11.35-.48-17-.07-2.61,0-5.22.09-7.83.11-2-.05-3.9-.1-5.85-.08-3.2-.07-6.41,0-9.61,0-3.38-.08-6.76-.09-10.14,0-.59-.09-1.18-.1-1.77s.14-.69.66-.72c2.33-.11,4.66-.27,7-.39,1-.06,1,0,1.06.94.26,3.06.18,6.13.22,9.2v4.07Z"/><path class="cls-1" d="M243.84,87.37V90.3c.19,3.54.33,7.09.65,10.63a53,53,0,0,0,5,18,18.47,18.47,0,0,0,1.7,2.88,9.77,9.77,0,0,0,1.31,1.48,4.73,4.73,0,0,0,6,.62,11,11,0,0,0,3.78-4,30.93,30.93,0,0,0,3.26-7.89,46.24,46.24,0,0,0,1.73-9.26,5.93,5.93,0,0,1,.1-.72c.17-.73.21-.75,1-.77a98.94,98.94,0,0,1,12.29.94c.69.07.83.27.87,1a31.43,31.43,0,0,1-.32,5.31,26.58,26.58,0,0,1-2.5,7.71,37.93,37.93,0,0,1-6.81,10.34,22.24,22.24,0,0,1-5.63,4.49,14.77,14.77,0,0,1-8.68,1.67,18.73,18.73,0,0,1-11-4.73,26.49,26.49,0,0,1-5.34-6.53,106,106,0,0,1-7.26-14.1c-.84-2.1-1.86-4.12-2.68-6.24a97.31,97.31,0,0,1-3.54-12.43A74.26,74.26,0,0,1,225.88,71c0-1.47-.1-2.93-.13-4.39-.06-3,.07-6.06.31-9.08.11-1.53.06-3.06.22-4.59s.47-3.09.72-4.64a8,8,0,0,1,1.24-2.74,32.9,32.9,0,0,1,9-9.25,41.64,41.64,0,0,1,16.88-7.19,37.08,37.08,0,0,1,21.1,2.28,18.37,18.37,0,0,1,8.88,8.52A24.65,24.65,0,0,1,286.81,49c.55,4.38-.1,8.68-.88,13a77.81,77.81,0,0,1-3.53,13,13.52,13.52,0,0,1-3.59,5.92,19.81,19.81,0,0,1-5.54,3.47,48.7,48.7,0,0,1-13.22,3.73A47.65,47.65,0,0,1,248.48,88a37.23,37.23,0,0,1-4.44-.69A.79.79,0,0,0,243.84,87.37Z"/><path class="cls-1" d="M155.61,61.28c.39-11.8,0-25.08.13-38.35,0-5-.1-10-.15-14.94V7.25c0-1.71.26-2,1.93-2.38a42.14,42.14,0,0,1,10.39-.72c.77,0,.8.07.84.88.21,4.2.59,8.4.69,12.61.13,5.4.31,10.8.62,16.19.71,12.14.7,24.3.5,36.46-.2,13,0,26-.2,39,0,1.91-.05,3.83.08,5.74.1,1.62.12,1.62,1.74,1.6,4,0,8-.31,12-.58,2.92-.19,5.84-.33,8.76-.5l13.05-.74a14.74,14.74,0,0,1,1.88,0,2.27,2.27,0,0,1,2.28,2.26,1.48,1.48,0,0,1,0,.21v6a53.73,53.73,0,0,0,.21,5.84c.08.92,0,.94-.9.92-1.95,0-3.91-.12-5.86-.14-4.74-.06-9.48,0-14.22-.14-8.54-.24-17.08-.14-25.61-.17-2.4,0-4.79-.35-7.19-.52-.47,0-.57-.24-.6-.65-.1-1.74-.26-3.47-.33-5.21-.13-2.75-.18-5.5-.31-8.25-.36-8.11-.2-16.23-.09-24.35C155.35,81.28,155.57,72,155.61,61.28Z"/><path class="cls-2" d="M528.91,92a96.82,96.82,0,0,1-1.24,13.81,39.47,39.47,0,0,1-4.15,11.87,9.81,9.81,0,0,1-8.36,5.25,35.11,35.11,0,0,1-6.15-.09,11.39,11.39,0,0,1-8.06-4.7,13.43,13.43,0,0,1-2.69-6.7,27.7,27.7,0,0,1,.27-9.86,20,20,0,0,1,7.65-11.73,23.89,23.89,0,0,1,14.5-4.87,36.52,36.52,0,0,1,7.45.86c.55.1.65.36.68.84C528.94,88.43,528.9,90.2,528.91,92Z"/><path class="cls-2" d="M249,78.26a40.83,40.83,0,0,1-5.52-.28c-1.12-.14-1.13-.17-1.34-1.23a80.51,80.51,0,0,1-1.47-11.69,58.18,58.18,0,0,1,0-8.35A34.21,34.21,0,0,1,243.17,46a14.17,14.17,0,0,1,10.29-8.37,21.77,21.77,0,0,1,14.81,1.87,8.87,8.87,0,0,1,4.87,6.27,40.53,40.53,0,0,1,.72,12.57A32,32,0,0,1,271.8,68a17.76,17.76,0,0,1-4.63,6.86,9,9,0,0,1-5.77,2.59C257.27,77.69,253.14,78.21,249,78.26Z"/></g></g><g id="Layer_2-3" data-name="Layer 2"><g id="Layer_1-2-3" data-name="Layer 1-2"><g id="Layer_2-2-2" data-name="Layer 2-2"><g id="Layer_1-2-2-2" data-name="Layer 1-2-2"><path class="cls-3" d="M52.83,119.88c0-.95,0-1.9-.07-2.86a.69.69,0,0,0,.05-.24c-.09-2,0-3.92-.13-5.88-.06-1.29,0-2.57,0-3.87a1.21,1.21,0,0,0-.06-.75c0-1.64,0-3.28-.07-4.92l.08-.24,1-.67,7.74-5.34,13.46-9.3L83,80.09,95.5,71.46l8.62-5.95,7-4.85c2.33-1.62,4.61-3.16,6.89-4.75s4.8-3.32,7.19-5a11.67,11.67,0,0,0,1.8-1.31h.22a7.43,7.43,0,0,0,1,.75c1.12.8,2.25,1.58,3.35,2.41,1.62,1.22,3.21,2.46,4.79,3.71s3.1,2.41,4.61,3.67A46.66,46.66,0,0,1,145.24,64a8.62,8.62,0,0,1,2,3.34,3.41,3.41,0,0,1-.63,3.15,4.64,4.64,0,0,1-3.52,1.87c-.27,0-.32.18-.33.41,0,.94,0,1.89-.05,2.84-.06,2.88-.11,5.76-.18,8.64-.05,2.05,0,4.1-.14,6.15-.12,1.66,0,3.32-.08,5-.09,4.16-.15,8.32-.28,12.47-.06,1.65,0,3.3-.09,4.94-.14,3.19-.08,6.37-.13,9.55a6.4,6.4,0,0,1-3,5.47,8.39,8.39,0,0,1-2.86,1.07A9,9,0,0,1,134,129c-11.89,0-23.79-.09-35.68,0-12.68.12-25.36,0-38,.07a9.23,9.23,0,0,1-3.3-.76,6.11,6.11,0,0,1-1.63-.92A5.9,5.9,0,0,1,53.54,125a10.73,10.73,0,0,1-.73-4.82C52.9,120.07,52.94,120,52.83,119.88Z"/><path class="cls-4" d="M9.91,82.18c0-.68,0-1.36,0-2a.43.43,0,0,1,.09-.1l12.32-9.42q5-3.81,9.91-7.59c.22-.17.28-.29.09-.55A9.11,9.11,0,0,0,29.54,60a8.6,8.6,0,0,0-3.91-1.14,9.43,9.43,0,0,0-3.34.4,8.87,8.87,0,0,0-3.4,1.94c-.14.12-.24.21-.43.06a9,9,0,0,0-4.2-1.71,8.42,8.42,0,0,0-2.65,0c-.57.11-1.14.29-1.74.42V5.18a4.87,4.87,0,0,1,1.58-3.84A5,5,0,0,1,13.73.18,8.53,8.53,0,0,1,15.68.05H116.09c.37,0,.74,0,1.12,0-1.45,1.11-2.88,2.24-4.34,3.36S109.78,5.84,108.21,7c-1.08.79-2.11,1.64-3.17,2.46l-3.56,2.69L93,18.59c-2.15,1.64-4.33,3.25-6.46,4.9-1.86,1.43-3.72,2.89-5.6,4.29-1.1.81-2.17,1.68-3.27,2.49-1.27.93-2.51,1.92-3.76,2.88l-3.79,2.92-5.84,4.44L55.85,47c-1.59,1.21-3.2,2.41-4.8,3.62-1.18.89-2.34,1.81-3.52,2.71-1.49,1.14-3,2.26-4.49,3.4-1.95,1.49-3.9,3-5.84,4.49a9.24,9.24,0,0,0-1.57,1.28l-.26.23q-10,7.71-20.06,15.37Zm5.48-59.52a19.83,19.83,0,1,0,39.66.06,19.82,19.82,0,0,0-19.62-20h-.06A19.88,19.88,0,0,0,15.39,22.66Z"/><path class="cls-5" d="M35.64,62.48a10.89,10.89,0,0,1,1.57-1.29c1.94-1.51,3.89-3,5.84-4.48l4.49-3.41c1.18-.89,2.34-1.81,3.52-2.7,1.6-1.22,3.21-2.41,4.8-3.62l8.45-6.47,5.82-4.44,3.79-2.93c1.26-1,2.49-1.95,3.77-2.88,1.1-.82,2.16-1.68,3.26-2.49,1.89-1.4,3.74-2.86,5.6-4.29,2.15-1.65,4.33-3.26,6.48-4.9l8.45-6.47c1.19-.9,2.38-1.79,3.56-2.7s2.09-1.66,3.17-2.45c1.58-1.14,3.12-2.37,4.68-3.56s2.89-2.22,4.34-3.34c2,0,4.08-.14,6.1,0a5.11,5.11,0,0,1,4.81,4.16,6.38,6.38,0,0,1,.1,1.23v43a3.77,3.77,0,0,1,0,.47,2.18,2.18,0,0,0-1,.69H127c-.88-.72-1.89-1.24-2.81-1.88s-2.11-1.43-3.17-2.12c-1.36-.92-2.74-1.81-4.1-2.73-1.86-1.25-3.69-2.49-5.6-3.63S107.46,37,105.52,36A35,35,0,0,0,100,33.14a9.09,9.09,0,0,0-3.91-.32A9.28,9.28,0,0,0,92.71,34c-2.32,1.28-4.65,2.55-6.94,3.87S81.2,40.58,79,42.08c-1.14.79-2.33,1.54-3.49,2.32-1.85,1.24-3.67,2.53-5.54,3.73-2,1.31-4,2.67-6,4.11-2.38,1.76-4.71,3.58-7,5.42-2.07,1.63-4.16,3.26-6.1,5a11.73,11.73,0,0,0-3.12,3.94,3.56,3.56,0,0,0,.36,3.77,4.27,4.27,0,0,0,3.15,1.76c.69.07.69.08.71.78,0,.26.05.51.05.77,0,1.63,0,3.27.09,4.9s0,3.49.08,5.24c.09,2,.1,4.1.18,6.14s0,4.08.09,6.11c.08,1.66.07,3.32.1,5l-.09.24a.74.74,0,0,0-.48.13c-.34.24-.67.49-1,.72l-3.2,2.23L44.08,107c-.71.49-1.4,1-2.11,1.49l-4.29,2.94c-1.17.8-2.34,1.62-3.51,2.43-1.53,1.06-3.08,2.07-4.57,3.18a9.32,9.32,0,0,0-1.83.1,1.67,1.67,0,0,1,0-.63V102c0-.28,0-.41.37-.35a12.11,12.11,0,0,0,14.23-8.86,11.58,11.58,0,0,0,.26-4.72.7.7,0,0,1,.23-.69,11.79,11.79,0,0,0,1-16.25,11.44,11.44,0,0,0-6-3.81.71.71,0,0,1-.62-.68,9.61,9.61,0,0,0-1.23-3.86C35.94,62.64,35.89,62.42,35.64,62.48Z"/><path class="cls-6" d="M35.64,62.48c.26-.06.31.16.39.31a9.61,9.61,0,0,1,1.23,3.86.71.71,0,0,0,.62.68,11.36,11.36,0,0,1,6,3.81,11.78,11.78,0,0,1-1,16.25.7.7,0,0,0-.23.69,11.57,11.57,0,0,1-.26,4.72,12.11,12.11,0,0,1-14.23,8.86c-.35-.06-.37.08-.37.35v14.47a1.67,1.67,0,0,0,0,.63v1.43a.08.08,0,0,0-.07,0c-.24,0-.39.16-.57.29l-7.51,5c-.05-2.52,0-5-.05-7.57-.06-4.46,0-8.92,0-13.38,0-.39-.06-.52-.5-.45a10.41,10.41,0,0,1-3,0,10.57,10.57,0,0,1-6.18-2.7.46.46,0,0,0-.16-.07l-.5-.52a1.27,1.27,0,0,0-.5-.55,10.69,10.69,0,0,1-2.42-5.93.82.82,0,0,0-.72-.83,10.11,10.11,0,0,1-4.35-2.63c-.29-.27,0-.36.14-.48l6-4.61c.86-.65,1.69-1.32,2.54-2,1.8-1.37,3.61-2.74,5.4-4.12q10.05-7.66,20.07-15.36Z"/><path class="cls-7" d="M9.88,60c.57-.13,1.15-.3,1.74-.42a8.72,8.72,0,0,1,2.65,0,8.85,8.85,0,0,1,4.2,1.72c.2.15.28.06.43-.07a8.88,8.88,0,0,1,3.39-1.93,9.67,9.67,0,0,1,3.34-.41A8.66,8.66,0,0,1,29.54,60a9,9,0,0,1,2.76,2.45c.19.26.13.38-.1.56l-9.89,7.58L10,80.05a.39.39,0,0,0-.08.1L4,84.6c-.48.37-1,.74-1.46,1.14-.2.17-.31.14-.48,0A9,9,0,0,1,.21,81.75a9.48,9.48,0,0,1,1.15-6.83A9.81,9.81,0,0,1,4.5,71.59.5.5,0,0,0,4.76,71h0v0A8.73,8.73,0,0,1,8.57,60.78C9,60.52,9.43,60.28,9.88,60Z"/><path class="cls-8" d="M29.6,117c1.48-1.11,3-2.12,4.57-3.18l3.51-2.44L42,108.46c.71-.49,1.4-1,2.11-1.49,1.24-.86,2.48-1.69,3.71-2.54L51,102.2c.34-.23.67-.48,1-.72a.74.74,0,0,1,.48-.13c0,1.64.06,3.28.08,4.92-.08.26-.18.53.07.77,0,1.29,0,2.57,0,3.86.09,2,0,3.92.13,5.88a2.21,2.21,0,0,1-.05.25H30.15Z"/><path class="cls-5" d="M9.71,99.71a.44.44,0,0,1,.16.06,10.63,10.63,0,0,0,6.18,2.7,10.41,10.41,0,0,0,3,0c.44-.07.5.06.5.45,0,4.46-.05,8.92,0,13.38,0,2.52,0,5,.05,7.57a1.75,1.75,0,0,0,0,.51,19.28,19.28,0,0,1,0,2.15c-.22-.13-.12-.34-.12-.51v-8.47c0-.4-.12-.5-.51-.5-1.2,0-2.41,0-3.61,0a5.26,5.26,0,0,1-5-3.22A4.09,4.09,0,0,1,9.9,112c0-3.76,0-7.52,0-11.27A1.62,1.62,0,0,0,9.71,99.71Z"/><path class="cls-9" d="M19.56,126.5a19.28,19.28,0,0,0,0-2.15,1.76,1.76,0,0,1,0-.51q3.75-2.5,7.54-5c.18-.11.33-.28.57-.28l.09.28c0,2.42,0,4.84,0,7.26A2.8,2.8,0,0,1,25,128.94H25a16.59,16.59,0,0,1-3.15-.08,2.54,2.54,0,0,1-2.12-1.92c0-.11,0-.21-.09-.28Z"/><path class="cls-10" d="M52.57,101.1c0-1.66,0-3.32-.1-5-.1-2,0-4.07-.09-6.11s-.09-4.09-.18-6.14c-.07-1.75,0-3.5-.08-5.24s-.07-3.27-.09-4.9c0-.26-.05-.52-.05-.77,0-.7,0-.71-.71-.78a4.25,4.25,0,0,1-3.15-1.77,3.56,3.56,0,0,1-.36-3.76,11.73,11.73,0,0,1,3.12-3.94c1.94-1.78,4-3.41,6.1-5,2.33-1.83,4.66-3.67,7-5.44C66,50.8,68,49.44,70,48.13c1.87-1.21,3.69-2.5,5.54-3.74,1.16-.78,2.34-1.52,3.49-2.31,2.2-1.5,4.46-2.89,6.76-4.21s4.62-2.6,6.94-3.88a9.29,9.29,0,0,1,3.38-1.19,9.09,9.09,0,0,1,3.91.32,35.76,35.76,0,0,1,5.51,2.82c1.94,1.08,3.89,2.17,5.8,3.31s3.76,2.39,5.6,3.64c1.36.93,2.74,1.82,4.1,2.73,1.06.71,2.12,1.41,3.16,2.13s1.94,1.16,2.82,1.87a10.48,10.48,0,0,1-1.8,1.31q-3.59,2.51-7.19,5c-2.3,1.58-4.61,3.14-6.91,4.73l-7,4.85-8.62,5.95L83,80.09l-8.26,5.72-13.46,9.3c-2.58,1.79-5.16,3.56-7.74,5.34Z"/><path class="cls-11" d="M15.39,22.66a19.83,19.83,0,1,1,39.65,0h0v0a19.83,19.83,0,1,1-39.65-.06Z"/></g></g></g></g></g></g></svg>